<svg width="521" height="521" viewBox="0 0 521 521" fill="none" xmlns="http://www.w3.org/2000/svg">
<path d="M233.461 147.482C239.149 137.407 210.012 133.914 229.642 143.924C231.462 144.525 231.056 148.181 233.461 147.482ZM74.5849 61.8936C62.2024 45.7249 97.8549 64.6074 85.2937 47.6749C74.6987 39.2411 64.5262 57.1811 74.5849 61.8936ZM100.52 82.2061C118.102 79.8661 96.0512 74.6336 96.9937 81.9949L100.52 82.2061ZM86.6262 78.8749C90.3962 73.7561 80.0124 81.4749 86.6262 78.8749ZM114.657 109.734C125.577 109.994 109.961 95.0761 122.961 101.82C120.832 94.8486 107.816 93.5486 101.43 90.7699C97.8549 97.1399 108.742 109.815 114.625 109.734H114.657ZM80.6624 108.336C90.0062 101.284 112.902 112.512 98.2124 101.332C96.7987 100.081 66.0049 109.815 80.6624 108.336ZM71.0749 126.666C87.4387 121.109 109.799 114.869 117.517 129.412C109.652 119.955 114.349 110.644 121.775 124.472C132.256 138.464 137.505 118.119 130.664 113.406C138.447 123.075 147.287 127.625 135.88 114.007C148.262 99.1061 111.05 115.974 102.584 115.795C98.5212 117.615 60.5124 125.48 71.0749 126.666ZM101.527 177.594C105.525 172.654 96.0512 176.277 101.527 177.594ZM91.9887 203.122C91.0137 197.24 89.1449 206.242 91.9887 203.122ZM83.9124 199.027C93.0449 198.426 98.2449 188.936 82.1412 189.489C57.1649 186.905 104.16 198.02 78.9399 194.851C75.5437 197.077 83.7337 199.661 83.9124 199.06V199.027ZM473.912 446.759C485.222 446.759 508.184 443.249 483.565 443.249C479.714 443.866 461.059 443.736 473.912 446.759ZM419.702 414.925C420.921 406.637 414.226 415.672 419.702 414.925ZM462.196 443.964C462.44 436.749 456.021 447.214 462.196 443.964ZM43.8399 182.209C51.9487 176.017 34.2687 179.852 43.8399 182.209ZM74.6987 204.146C79.6712 198.865 63.9249 202.001 74.6987 204.146ZM64.2499 201.221C78.4037 192.544 49.2024 193.714 64.2499 201.221ZM168.932 135.327C173.661 122.896 187.327 130.355 171.126 132.825C171.467 134.141 170.639 139.244 168.932 135.327ZM155.932 135.409C178.65 144.184 154.811 110.757 155.932 135.409ZM110.237 142.445C117.745 133.426 152.78 136.692 127.137 141.567C120.28 136.384 114.999 144.606 110.237 142.445ZM107.069 144.557C111.57 139.276 108.369 149.221 107.069 144.557ZM94.7349 149.53C95.3849 141.177 115.405 153.95 98.0499 152.536L94.7349 149.53ZM85.6999 149.367C92.8012 144.086 89.4699 152.325 85.6999 149.367ZM84.7412 158.191C89.6812 140.04 111.147 173.109 92.8174 160.58C90.8512 159.036 88.3487 158.11 85.6187 158.11C85.3099 158.11 85.0012 158.126 84.6924 158.142H84.7249L84.7412 158.191ZM34.0899 183.98C32.2049 173.109 32.4649 154.047 50.5837 160.499C26.4037 165.292 67.3212 190.545 62.1537 170.606C72.3099 171.094 82.0599 164.594 76.6974 174.457C96.7337 172.231 110.611 154.876 129.981 157.297C147.564 155.835 163.814 152.439 179.267 147.304L177.789 147.726C191.146 146.751 203.984 132.37 196.671 123.871C193.129 123.66 188.985 123.53 184.809 123.53C168.672 123.53 152.959 125.382 137.879 128.876L139.276 128.6C116.981 133.231 96.7174 142.039 74.1949 145.841C52.2574 148.782 78.5987 153.966 72.3262 155.104C60.8699 159.085 85.9762 161.766 70.8474 165.942C61.5037 164.155 51.7537 160.954 55.7674 151.122C34.7562 153.82 16.2637 162.562 32.8874 183.931H34.1062L34.0899 183.98ZM69.3524 207.575C70.4737 199.856 61.0324 209.102 69.3524 207.575ZM438.569 446.222C441.25 438.26 431.792 447.23 438.569 446.222ZM398.48 425.439C405.175 419.28 389.949 423.537 398.48 425.439ZM66.7849 220.575C77.2987 216.447 47.6912 212.044 64.6724 219.762L66.7849 220.575ZM42.0199 205.771C41.3049 199.271 38.1687 206.584 42.0199 205.771ZM37.5512 209.151C37.1449 203.675 34.6262 211.215 37.5512 209.151ZM67.7274 228.732C66.3137 216.854 50.6649 226.945 67.7274 228.732ZM126.211 271.941C128.681 269.666 120.329 270.251 126.211 271.941ZM73.3012 238.027C71.3999 240.497 70.8637 236.061 73.3012 238.027ZM64.8999 233.916C65.0787 228.846 51.4287 229.366 64.8999 233.916ZM50.1937 230.211C47.3987 214.481 39.5337 227.822 50.1937 230.211ZM111.862 273.03C112.041 264.759 105.427 272.721 111.862 273.03ZM390.534 446.612C400.934 444.5 424.61 451.894 428.429 443.85C415.835 443.541 384.765 434.961 383.302 445.881L386.065 446.352L390.534 446.612ZM104.42 271.161C104.274 268.464 101.95 272.169 104.42 271.161ZM80.9387 259.786C89.0474 257.04 73.4799 257.966 80.9387 259.786ZM268.366 386.309C268.22 378.167 260.339 388.34 268.366 386.309ZM85.9437 271.34C98.5374 266.465 72.4562 267.895 85.9437 271.34ZM329.824 428.104C334.211 424.854 324.347 427.697 329.824 428.104ZM284.096 399.276C283.284 396.124 280.911 399.877 284.096 399.276ZM278.539 395.23C276.345 389.591 269.845 395.1 278.539 395.23ZM163.18 322.462C163.18 314.24 148.457 319.131 163.18 322.462ZM149.855 319.375C149.595 318.725 144.46 314.841 149.855 319.375ZM62.0562 265.246C63.9249 257.462 44.7337 222.46 53.0049 247.696C55.9624 252.977 55.6374 263.004 62.0562 265.246ZM109.896 303.011C120.394 305.367 151.854 328.881 133.296 304.636C123.79 301.841 129.494 278.587 119.792 282.699C126.292 293.57 125.155 298.185 111.472 291.344C94.3124 282.959 101.852 295.487 105.184 298.932C100.634 299.989 111.261 302.914 109.912 302.995L109.896 303.011ZM372.756 472.222C380.589 466.99 363.234 470.532 372.756 472.222ZM344.725 453.584C356.376 443.801 332.391 457.906 344.725 453.584ZM350.201 456.232C364.517 445.881 341.507 454.25 347.195 458.182L350.201 456.232ZM189.911 361.105C186.97 355.076 185.361 362.064 189.911 361.105ZM180.567 355.694C180.161 350.819 174.652 356.1 180.567 355.694ZM332.261 451.341C343.457 444.126 329.71 445.247 330.23 451.991L332.261 451.341ZM102.697 306.57C106.012 301.662 94.1662 305.936 102.697 306.57ZM335.934 456.07C347.504 446.157 328.621 453.99 335.934 456.07ZM318.351 449.164C341.394 434.262 308.894 442.664 318.351 449.164ZM74.0649 296.17C63.3887 280.944 67.4187 274.07 57.1162 261.655C55.1662 252.116 39.4524 230.52 48.9912 253.416C57.7174 266.79 60.3174 287.509 74.0649 296.186V296.17ZM322.267 453.389C334.796 440.112 310.129 454.185 322.267 453.389ZM322.251 457.646C322.316 454.607 317.376 458.979 322.251 457.646ZM298.689 441.494C310.015 431.987 287.72 445.719 298.689 441.494ZM195.192 377.534C202.537 384.034 228.944 382.327 204.13 378.346C200.441 372.87 180.762 374.202 195.192 377.534ZM119.841 332.115C114.934 323.957 102.291 324.721 119.841 332.115ZM106.614 323.421C104.582 315.442 92.3949 315.507 106.614 323.421ZM303.417 447.035C310.015 440.632 303.677 457.256 314.386 445.475C314.484 437.041 314.045 432.069 302.085 442.306C298.802 444.126 297.34 451.91 303.417 447.035ZM291.019 441.819C291.425 436.131 287.102 446.694 291.019 441.819ZM170.395 368.742C199.027 377.956 156.355 357.449 170.395 368.742ZM146.832 355.206C153.739 360.341 172.832 369.799 156.664 357.156C162.124 350.819 146.231 347.455 151.512 343.23C138.106 335.024 140.95 335.755 150.342 335.999C134.222 328.816 152.65 329.336 151.756 325.647C145.565 324.429 120.897 314.679 135.425 326.46C120.686 318.952 131.915 329.255 127.462 328.166C112.382 324.071 140.869 339.639 125.074 335.787C133.702 342.629 148.344 353.337 128.73 343.035C126.13 346.756 142.737 352.379 146.849 355.222L146.832 355.206ZM191.325 384.732C203.821 387.982 203.756 382.799 192.446 381.287C186.352 375.6 167.145 369.604 184.321 380.572C185.475 383.449 189.099 383.4 191.309 384.749L191.325 384.732ZM168.786 373.357C169.111 374.771 166.186 371.099 168.786 373.357ZM179.739 157.85C181.64 155.51 180.145 160.677 179.739 157.85ZM173.19 196.899C168.802 189.18 178.715 162.92 179.804 179.235C175.189 191.926 178.487 199.027 181.689 181.997C187.636 168.591 180.405 208.452 173.157 196.915L173.19 196.899ZM166.82 207.25C170.476 215.456 165.747 200.75 166.82 207.25ZM170.736 217.601C176.667 225.921 164.35 201.839 170.736 217.601ZM173.401 223.5C174.279 228.407 173.352 220.104 173.401 223.5ZM127.446 197.922C135.165 207.737 131.622 189.115 127.446 197.922ZM111.164 188.221C113.78 187.1 112.545 191.715 111.164 188.221ZM180.762 242.561C183.135 223.386 182.859 253.79 180.762 242.561ZM118.33 205.934C121.759 200.896 109.197 183.184 120.134 199.58C124.846 203.334 133.784 205.869 125.886 207.445C138.269 218.397 122.847 210.402 118.33 205.95V205.934ZM184.337 247.826C185.231 230.975 189.375 237.767 184.37 250.215L184.337 247.826ZM112.057 211.784C120.491 209.996 146.946 226.587 122.62 216.529C119.939 213.522 114.17 214.92 112.057 211.784ZM189.05 265.019C191.682 255.642 189.245 271.21 189.05 265.019ZM154.892 243.114C157.882 245.827 153.56 226.669 154.892 243.114ZM109.896 219.242C95.7424 199.694 151.057 239.002 118.98 224.199C115.632 223.321 111.586 222.98 109.896 219.242ZM187.994 272.185C189.082 267.716 188.14 277.417 187.994 272.185ZM192.056 276.215C194.071 283.316 193.031 265.799 192.056 276.215ZM168.705 262.402C159.166 256.682 166.202 222.119 169.452 245.746C178.731 242.74 168.949 257.934 175.855 257.804C174.782 267.407 171.679 270.869 168.754 262.386L168.705 262.402ZM105.557 225.694C83.5062 206.08 133.28 235.964 109.149 229.35L105.557 225.694ZM119.711 239.23C127.836 244.462 113.049 226.701 119.711 239.23ZM112.594 236.939C116.997 232.567 114.934 241.245 112.594 236.939ZM101.024 237.247C93.4349 229.74 87.9424 222.769 101.365 232.584C106.549 232.779 89.8762 216.789 102.584 227.514C115.99 229.951 109.23 249.484 101.024 237.264V237.247ZM123.042 254.294C130.469 267.164 127.43 245.047 123.042 254.294ZM113.894 251.157C118.557 259.542 114.706 238.905 113.894 251.157ZM134.271 265.181C130.014 257.901 127.495 249.142 127.495 239.799C127.495 239.782 127.495 239.766 127.495 239.75C129.039 247.42 143.826 272.786 134.742 250.264C124.716 231.381 146.719 256.39 148.994 261.102C150.001 265.766 142.802 259.819 147.694 270.804C138.756 258.275 142.412 277.726 134.271 265.181ZM200.181 309.154C193.031 293.115 205.251 300.379 201.757 311.786L200.181 309.154ZM161.961 296.885C168.526 302.166 158.809 291.246 161.961 296.885ZM206.47 327.857C209.687 336.47 209.2 317.62 206.47 327.857ZM143.452 293.7C147.905 292.481 145.646 301.289 143.452 293.7ZM222.639 348.365C232.177 352.509 215.082 333.74 222.639 348.365ZM229.187 357.156C231.365 364.469 228.992 347.65 229.187 357.156ZM304.441 414.34C308.195 414.112 304.571 417.184 304.441 414.34ZM238.677 372.561C232.665 366.272 231.105 354.491 237.605 364.745C240.936 366.077 248.265 383.969 238.677 372.561ZM258.876 429.582C274.574 420.206 269.39 451.552 285.494 432.215C301.37 420.645 271.795 446.564 291.376 434.311C305.514 424.821 326.427 438.78 339.622 443.346C349.129 442.875 358.359 451.569 368.109 446.287C386.845 441.217 331.432 438.78 345.976 429.842C343.734 430.346 341.15 430.639 338.501 430.639C325.42 430.639 313.98 423.57 307.789 413.056L307.691 412.894C286.582 409.4 268.659 397.944 256.731 381.791L256.585 381.58C252.685 375.177 262.272 382.474 253.221 372.041C243.374 362.129 234.972 350.737 228.407 338.257L228.034 337.494C218.755 332.537 217.682 317.945 216.724 337.006C216.805 324.965 205.495 316.856 202.749 320.236C202.716 308.634 214.839 314.451 206.324 305.871C204.504 293.846 198.491 281.301 196.671 267.749C193.876 261.216 196.265 247.225 187.067 262.029C183.72 277.661 185.946 242.805 191.162 254.31C198.004 242.529 188.725 243.959 188.319 245.584C192.787 235.671 191.162 221.615 187.165 226.977C189.537 216.48 190.919 188.351 183.606 193.356C188.026 182.387 192.007 143.144 172.767 158.11C162.692 158.516 153.235 160.694 144.557 164.317L145.094 164.122C165.114 175.156 143.062 168.104 134.937 166.349C133.881 176.537 125.805 172.134 115.73 172.231C131.834 174.214 107.897 188.676 98.6512 183.07C86.6749 188.79 109.002 203.106 98.8949 207.542C100.114 214.205 80.5162 205.105 82.0437 220.542C70.4087 215.651 80.4674 238.824 86.2849 230.975C106.077 236.337 100.211 248.557 100.699 260.16C97.4974 266.92 84.7737 244.267 97.8549 245.307C87.5524 228.521 86.4637 239.214 77.8674 247.03C75.8362 247.599 99.7724 258.145 84.7737 263.329C97.9687 265.36 98.3424 276.93 101.024 284.242C108.937 292.514 107.312 275.11 116.835 285.055C110.822 276.199 85.0174 260.111 105.785 265.279C105.687 256.341 102.031 249.175 108.401 249.354C114.69 237.946 101.804 277.515 116.022 263.004C119.939 261.281 120.897 251.564 127.999 263.914C138.252 274.021 131.687 281.334 117.209 272.104C119.792 280.895 136.579 284.031 133.426 297.795C136.774 309.885 141.454 305.432 145.532 304.734C148.734 316.466 150.554 307.837 150.716 302.231C165.341 305.384 161.929 314.012 166.511 320.106C176.602 324.656 152.049 289.199 169.387 309.43C187.62 325.875 176.229 332.781 159.849 330.149C170.2 329.32 173.564 344.156 186.515 343.636C198.329 349.259 206.307 370.855 185.962 361.852C178.894 355.499 153.885 347.634 174.327 359.74C195.16 368.271 212.271 376.624 228.765 385.919L226.327 384.667C239.327 393.962 244.966 404.606 249.89 406.719C238.97 411.935 216.935 402.542 233.299 399.65C223.077 397.797 211.605 392.646 221.371 405.337C229.691 412.309 250.816 411.545 254.619 412.341C251.385 419.41 245.892 419.979 254.749 420.531C244.885 425.812 257.917 426.625 258.827 429.631L258.876 429.582ZM200.474 393.686C217.26 395.831 180.47 382.246 196.801 392.467L200.474 393.686ZM245.259 424.09C259.835 418.305 231.04 421.246 245.259 424.09ZM159.15 370.53C168.494 369.522 144.119 364.209 159.15 370.53ZM210.029 402.867C211.247 397.684 199.304 401.307 210.029 402.867ZM284.437 451.049C284.242 447.051 280.716 452.576 284.437 451.049ZM216.09 409.124C214.985 409.692 213.782 406.491 216.09 409.124ZM106.289 339.362C104.729 333.334 92.6062 328.524 106.289 339.362ZM148.116 366.419C160.71 365.671 130.891 360.877 148.116 366.419ZM183.411 391.882C182.111 387.999 176.586 391.72 183.411 391.882ZM277.434 449.879C278.002 442.501 270.267 455.355 277.434 449.879ZM146.052 368.954C145.207 364.891 140.657 369.327 146.052 368.954ZM240.351 429.062C262.289 429.257 220.559 426.072 240.351 429.062ZM200.279 405.906C223.435 412.471 180.827 391.281 194.575 403.517L197.614 404.899L200.246 405.906H200.279ZM220.266 421.815C224.182 415.12 203.724 417.964 220.266 421.815ZM154.47 381.645C163.927 388.909 192.641 382.571 168.965 377.322C158.207 371.57 133.897 367.654 150.44 380.767L154.47 381.645ZM206.941 417.639C215.667 414.356 192.804 414.324 206.941 417.639ZM187.327 405.597C193.421 401.34 174.717 402.347 187.327 405.597ZM163.976 391.996C163.164 388.6 151.464 388.242 163.976 391.996ZM243.601 454.022C251.661 459.092 290.71 465.186 266.237 456.119C262.175 456.964 220.949 444.467 243.569 454.022H243.601ZM193.437 422.709C193.161 419.345 189.862 424.236 193.437 422.709ZM183.411 417.704C193.307 411.301 170.622 417.622 183.411 417.704ZM227.416 448.432C231.3 442.712 215.034 446.255 227.416 448.432ZM204.52 435.644C210.857 429.55 194.689 431.825 204.52 435.644ZM191.13 430.054C190.041 424.675 186.255 433.06 191.13 430.054ZM180.437 426.154C184.809 424.204 174.149 423.716 180.437 426.154ZM100.146 355.141C103.737 361.576 100.812 352.184 100.146 355.141ZM156.875 417.427C176.57 424.724 156.794 403.582 147.742 404.801C143.761 397.879 132.5 393.491 140.43 389.77C126.13 394.726 125.464 370.887 118.704 374.284C103.591 369.506 112.821 352.557 94.8162 342.206C93.1749 331.237 76.9087 321.731 71.7087 305.205C69.4174 296.755 53.3299 272.445 63.2262 295.049C73.7562 317.571 85.6187 336.957 99.3174 354.849L98.7649 354.085C107.621 373.244 120.637 389.152 136.725 401.177L137.05 401.405C142.932 407.06 148.587 415.689 156.891 417.444L156.875 417.427ZM195.534 444.76C213.571 454.039 234.501 461.27 256.52 465.365L257.95 465.592C279.124 470.451 303.434 473.23 328.41 473.23C341.377 473.23 354.182 472.482 366.76 471.02L365.232 471.166C349.194 463.919 332.586 474.01 316.596 465.982C310.909 466.632 304.311 466.99 297.632 466.99C283.349 466.99 269.455 465.316 256.146 462.147L257.365 462.391C230.861 452.739 208.826 442.794 187.62 431.484L190.529 432.897C164.594 423.44 203.935 445.036 210.939 446.807C227.14 456.005 193.129 442.079 188.319 438.26C174.75 430.639 173.011 432.231 186.986 439.966C189.814 441.591 192.592 443.33 195.517 444.744L195.534 444.76ZM162.741 430.541C142.786 416.81 125.691 400.836 111.212 382.685L110.839 382.214C83.6037 348.787 61.4224 309.885 46.3099 267.635L45.4487 264.905C36.3974 237.394 33.2612 207.884 21.6099 181.445C19.2537 177.122 17.8724 171.971 17.8724 166.495C17.8724 150.7 29.4262 137.586 44.5387 135.165L44.7174 135.149C54.0612 133.377 70.5549 124.554 50.6649 130.859C32.8387 143.94 31.1162 118.98 49.3812 117.42C57.3274 117.339 63.7462 110.887 63.7462 102.925C63.7462 100.536 63.1612 98.2774 62.1374 96.2786L62.1699 96.3599C48.7637 87.6336 94.6537 78.0299 71.5787 65.0136C47.5612 39.0461 105.232 34.0736 91.0137 63.5186C87.6174 86.1549 131.297 59.3586 121.174 85.5049C131.476 98.0824 159.751 88.3486 159.052 105.996C174.084 107.004 179.219 119.646 193.307 120.621C207.932 127.219 234.371 132.402 239.327 148.847C224.849 160.336 191.325 125.187 189.716 156.924C190.09 206.892 197.516 254.976 211.036 300.444L210.11 296.787C220.997 323.827 236.435 346.919 255.675 366.191C273.209 385.724 294.285 401.649 317.977 413.056L319.18 413.576C338.03 422.481 359.935 429.501 382.847 433.531L384.424 433.759C393.524 426.787 409.611 400.917 423.781 411.821C424.447 424.09 395.587 437.464 422.416 436.115C438.179 431.37 449.099 448.302 462.082 433.027C474.026 447.181 511.759 423.976 503.244 452.934C491.755 460.327 474.985 455.859 463.464 466.047C444.484 456.557 429.355 474.53 408.327 472.255C387.674 476.009 363.9 478.154 339.622 478.154C338.907 478.154 338.176 478.154 337.461 478.154H337.575C296.17 477.422 256.552 470.939 219.112 459.482L222.151 460.279C199.499 452.625 179.852 442.55 162.026 430.054L162.774 430.557L162.741 430.541Z" fill="white"/>
</svg>
